PathFileType	4	(X/Y/Z)	TVC_16_BWA5_walk_RCNL2025.trc
DataRate	CameraRate	NumFrames	NumMarkers	Units	OrigDataRate	OrigDataStartFrame	OrigNumFrames
100	100	13	27	mm	100	504	671
Frame#	Time	R_Shoulder			L_Shoulder			C7			J_Notch			R_Elbow			L_Elbow			R_Wrist			L_Wrist			R_Asis			L_Asis			R_Psis			L_Psis			Sacral			Thoracic			Sternum			R_Thigh_Lateral			R_Knee_Lateral			R_Shank_Lateral			R_Ankle_Lateral			R_Heel			R_Toe			L_Thigh_Lateral			L_Knee_Lateral			L_Shank_Lateral			L_Ankle_Lateral			L_Heel			L_Toe		
		X1	Y1	Z1	X2	Y2	Z2	X3	Y3	Z3	X4	Y4	Z4	X5	Y5	Z5	X6	Y6	Z6	X7	Y7	Z7	X8	Y8	Z8	X9	Y9	Z9	X10	Y10	Z10	X11	Y11	Z11	X12	Y12	Z12	X13	Y13	Z13	X14	Y14	Z14	X15	Y15	Z15	X16	Y16	Z16	X17	Y17	Z17	X18	Y18	Z18	X19	Y19	Z19	X20	Y20	Z20	X21	Y21	Z21	X22	Y22	Z22	X23	Y23	Z23	X24	Y24	Z24	X25	Y25	Z25	X26	Y26	Z26	X27	Y27	Z27
504	5.03000000	477.574829	1293.718506	-6.772341	490.965271	1299.154053	-332.427673	427.105072	1352.435547	-164.692001	561.446655	1220.360352	-157.485077	399.457214	989.552979	70.752579	525.725708	976.972351	-401.186859	469.377274	769.184357	102.006680	616.095184	789.415253	-330.856384	511.845184	862.074829	-56.330490	497.853210	883.308594	-320.607727	336.272827	904.672241	-127.947166	333.605011	909.564880	-234.241104	334.938919	907.118561	-181.094135	357.430786	1086.862183	-179.125031	588.171997	1025.237183	-174.862869	535.314087	602.562378	42.423317	625.136658	444.293304	-33.336224	533.455383	316.227051	24.869156	387.233734	145.539215	-34.533382	344.918884	158.924118	-89.263718	481.925018	67.385620	-62.169693	502.256195	584.895386	-392.567719	539.877441	416.894165	-283.622375	481.489594	268.543243	-336.825134	424.553558	56.370667	-244.950211	379.869385	57.192570	-199.641815	557.424622	37.919132	-209.699783
505	5.04000000	481.675262	1293.453735	-6.211112	494.371521	1299.369507	-331.939819	431.101898	1352.476074	-163.983795	565.143311	1220.165405	-157.088638	402.637329	989.534241	71.312012	528.605103	977.176086	-401.056213	472.254456	768.958191	102.156944	619.175049	789.528320	-331.401566	515.550842	862.146912	-56.702381	500.652802	883.451782	-320.953461	339.652588	904.816956	-127.835670	336.649139	909.824768	-234.104706	338.150864	907.320862	-180.970188	360.888397	1086.995117	-178.656769	591.483521	1025.184448	-174.882217	538.570801	603.033081	42.207672	632.557434	446.837006	-33.535870	543.742981	317.505188	25.984903	405.820465	139.816757	-33.004787	363.156738	150.824921	-87.971954	503.871368	65.885635	-59.651123	504.228241	585.015015	-392.905609	540.716248	416.630463	-284.039948	482.114777	268.262665	-337.131104	424.547302	56.314243	-245.021240	379.870850	57.230362	-199.662979	557.461792	37.918171	-209.775681
506	5.05000000	485.801544	1293.208496	-5.613770	497.758789	1299.663330	-331.409332	435.098114	1352.539673	-163.212112	568.854309	1220.023560	-156.678314	405.984070	989.514282	71.907600	531.400085	977.471619	-400.921234	475.338531	768.752869	102.355453	622.160431	789.748718	-331.909531	519.306580	862.268188	-57.032196	503.443665	883.622864	-321.254547	343.073608	905.005920	-127.651245	339.703400	910.121521	-233.892426	341.388504	907.563721	-180.771835	364.364380	1087.151367	-178.136765	594.816528	1025.188354	-174.931091	541.976379	603.598694	42.081020	639.335938	449.150177	-33.608383	553.676208	318.391632	27.124210	424.876160	133.857040	-31.566158	381.916687	142.484619	-86.728058	526.101746	64.386055	-57.339138	506.145325	585.170349	-393.193268	541.446106	416.394531	-284.444397	482.654236	268.017517	-337.425598	424.535889	56.265633	-245.089005	379.866150	57.265144	-199.686981	557.496948	37.919018	-209.851273
507	5.06000000	489.963409	1292.975220	-4.985758	501.133301	1300.024292	-330.839172	439.097748	1352.619019	-162.381287	572.584473	1219.924683	-156.262177	409.503632	989.484863	72.534683	534.125305	977.848022	-400.786377	478.631927	768.559998	102.602184	625.055420	790.061981	-332.373550	523.116577	862.426392	-57.312119	506.220886	883.811340	-321.510864	346.539825	905.228699	-127.389381	342.768646	910.445129	-233.598343	344.654236	907.836914	-180.493862	367.862244	1087.324585	-177.564362	598.176514	1025.234619	-175.015747	545.562744	604.244080	42.075916	645.471191	451.184174	-33.554607	563.348267	318.837921	28.250780	444.347137	127.763924	-30.231947	401.132141	134.030716	-85.531693	548.550842	62.969006	-55.291813	507.989685	585.340027	-393.427032	542.089600	416.180145	-284.831970	483.106079	267.807190	-337.697266	424.521362	56.225246	-245.151245	379.858215	57.298016	-199.711166	557.528748	37.921227	-209.924133
508	5.07000000	494.170624	1292.745728	-4.331794	504.499939	1300.439331	-330.231659	443.104645	1352.706421	-161.495087	576.338013	1219.857666	-155.847443	413.200592	989.437073	73.189041	536.796692	978.292053	-400.654053	482.135681	768.370331	102.896404	627.865417	790.451019	-332.786194	526.983704	862.609558	-57.537476	508.979370	884.006836	-321.722687	350.054810	905.474060	-127.045479	345.845703	910.784424	-233.216583	347.950256	908.129242	-180.131031	371.384979	1087.507935	-176.938400	601.568176	1025.308472	-175.141281	549.326538	604.936523	42.221310	650.971130	452.897949	-33.379601	572.856140	318.827393	29.335852	464.162689	121.639893	-29.016178	420.716522	125.588837	-84.382187	571.135498	61.707138	-53.577137	509.743256	585.504761	-393.605957	542.671936	415.980438	-285.199036	483.476257	267.628632	-337.936218	424.505493	56.193218	-245.205902	379.849945	57.330112	-199.732559	557.555969	37.924206	-209.992386
509	5.08000000	498.432861	1292.511475	-3.655765	507.861969	1300.894531	-329.588470	447.122192	1352.794189	-160.556641	580.118591	1219.810425	-155.440292	417.078094	989.361816	73.866928	539.430603	978.789185	-400.524689	485.849609	768.174164	103.236736	630.597168	790.896637	-333.139755	530.909119	862.806458	-57.707207	511.714203	884.199341	-321.890503	353.621552	905.730164	-126.614807	348.935303	911.127686	-232.741364	351.278427	908.428925	-179.678085	374.935120	1087.693970	-176.257263	604.995239	1025.394531	-175.311569	553.231140	605.627991	42.537640	655.852478	454.259521	-33.092525	582.292664	318.373291	30.357288	484.231293	115.583473	-27.932077	440.561157	117.279053	-83.280289	593.750305	60.661049	-52.263649	511.389374	585.647766	-393.731323	543.220032	415.788025	-285.542236	483.778717	267.476746	-338.135071	424.489685	56.169434	-245.251175	379.843994	57.362644	-199.748276	557.577820	37.927261	-210.054901
510	5.09000000	502.759247	1292.263672	-2.960665	511.220978	1301.375000	-328.910828	451.153595	1352.874146	-159.568451	583.928955	1219.770874	-155.045761	421.137817	989.250183	74.565201	542.043579	979.323608	-400.396698	489.772491	767.961792	103.621151	633.258606	791.378387	-333.426590	534.892883	863.005981	-57.823833	514.421326	884.379639	-322.014771	357.242554	905.985046	-126.092628	352.038361	911.462952	-232.167236	354.640457	908.723999	-179.129932	378.514801	1087.875610	-175.519043	608.460449	1025.478516	-175.529114	557.212830	606.259521	43.033073	660.140442	455.246918	-32.706398	591.740723	317.512512	31.296940	504.437225	109.686340	-26.991383	460.534882	109.212021	-82.229500	616.265137	59.877251	-51.409878	512.915039	585.755920	-393.806213	543.762146	415.595123	-285.858429	484.034363	267.344940	-338.289459	424.475250	56.153591	-245.285583	379.842926	57.396957	-199.755829	557.593750	37.929672	-210.111237
511	5.10000000	507.158173	1291.994385	-2.248552	514.577209	1301.865967	-328.199249	455.201569	1352.938843	-158.532394	587.771362	1219.727539	-154.667587	425.380035	989.093750	75.281349	544.651245	979.879272	-400.266693	493.902145	767.723724	104.047009	635.858490	791.875397	-333.639542	538.934509	863.196899	-57.892944	517.097656	884.539490	-322.096069	360.919861	906.226929	-125.474380	355.155945	911.778381	-231.489182	358.037903	909.002655	-178.481781	382.125702	1088.045532	-174.721710	611.965881	1025.546753	-175.794983	561.191528	606.768433	43.702045	663.868408	455.848969	-32.237648	601.266602	316.298370	32.137886	524.638977	104.030403	-26.203413	480.484711	101.485451	-81.236885	638.525757	59.386768	-51.053925	514.312988	585.819885	-393.834534	544.326660	415.393860	-286.144348	484.268372	267.225647	-338.398041	424.463226	56.145298	-245.307983	379.849091	57.434540	-199.753342	557.604004	37.930798	-210.161606
512	5.11000000	511.636963	1291.696289	-1.520543	517.929504	1302.352783	-327.453827	459.268646	1352.981323	-157.449722	591.647339	1219.669189	-154.308121	429.803833	988.884888	76.013527	547.268127	980.440063	-400.129700	498.235718	767.451111	104.511139	638.406158	792.367096	-333.772278	543.033752	863.367798	-57.922504	519.741699	884.671448	-322.134644	364.654938	906.444824	-124.755836	358.289398	912.062805	-230.702957	361.472168	909.253815	-177.729397	385.769196	1088.197021	-173.863220	615.512634	1025.587280	-176.108826	565.083252	607.095398	44.525791	667.077454	456.065582	-31.705557	610.910339	314.794159	32.862869	544.669495	98.685089	-25.574043	500.238159	94.181099	-80.313049	660.356201	59.204124	-51.204578	515.583252	585.834106	-393.820343	544.941711	415.176422	-286.396576	484.507965	267.111023	-338.461914	424.454529	56.144142	-245.317520	379.864563	57.477016	-199.739594	557.609070	37.930096	-210.206650
513	5.12000000	516.201660	1291.362915	-0.776848	521.275696	1302.821533	-326.674133	463.357056	1352.995483	-156.321198	595.557800	1219.586182	-153.968277	434.407043	988.616943	76.760551	549.906860	980.990540	-399.979492	502.769730	767.136078	105.009895	640.911377	792.834045	-333.819748	547.191467	863.506592	-57.921993	522.353516	884.769165	-322.130585	368.448700	906.628967	-123.933403	361.440460	912.306396	-229.805283	364.944580	909.467682	-176.869343	389.446350	1088.324219	-172.941818	619.101379	1025.589966	-176.468674	568.811890	607.191772	45.474266	669.815186	455.907532	-31.131538	620.672607	313.068420	33.454899	564.339233	93.705017	-25.104752	519.606995	87.362587	-79.471306	681.564575	59.326122	-51.835846	516.734497	585.796448	-393.767181	545.634155	414.935242	-286.611115	484.779877	266.993530	-338.484039	424.449982	56.149799	-245.313538	379.891113	57.526161	-199.713989	557.609924	37.927177	-210.247223
514	5.13000000	520.856812	1290.989502	-0.016841	524.613037	1303.259888	-325.859344	467.468811	1352.976074	-155.147171	599.503296	1219.469849	-153.647552	439.186462	988.284729	77.521851	552.577759	981.516418	-399.808746	507.500198	766.772064	105.539227	643.383789	793.258423	-333.778351	551.409363	863.600952	-57.901493	524.935120	884.827332	-322.083527	372.301208	906.771118	-123.004425	364.611145	912.500610	-228.794250	368.456177	909.635864	-175.899338	393.157990	1088.421753	-171.956100	622.732178	1025.546509	-176.871033	572.317932	607.023560	46.509029	672.135315	455.396088	-30.538258	630.500732	311.191132	33.900318	583.441589	89.128578	-24.791830	538.392578	81.074379	-78.726006	701.948853	59.730301	-52.886383	517.784729	585.707581	-393.677856	546.428955	414.663361	-286.783386	485.108887	266.866364	-338.468018	424.450348	56.162094	-245.295502	379.930206	57.583858	-199.676468	557.607971	37.921795	-210.284256
515	5.14000000	525.605469	1290.572388	0.760846	527.938721	1303.656616	-325.008423	471.605652	1352.919312	-153.927719	603.483826	1219.313599	-153.343964	444.137909	987.884521	78.297493	555.288452	982.004700	-399.609589	512.422791	766.354156	106.094799	645.832672	793.624725	-333.646317	555.689880	863.638428	-57.870827	527.490540	884.841736	-321.992706	376.211792	906.864929	-121.967506	367.803802	912.638855	-227.669525	372.007797	909.751892	-174.818516	396.904694	1088.485840	-170.905273	626.404602	1025.451172	-177.310745	575.564148	606.574768	47.586746	674.096008	454.561829	-29.948641	640.278381	309.228790	34.193600	601.760620	84.977409	-24.625956	556.392517	75.342033	-78.090431	721.305359	60.373718	-54.264420	518.760925	585.570190	-393.554077	547.348328	414.354523	-286.907898	485.516602	266.723846	-338.417114	424.456421	56.181084	-245.263000	379.982910	57.652061	-199.627426	557.604553	37.913811	-210.318619
516	5.15000000	530.448853	1290.109863	1.558173	531.250061	1304.002930	-324.120148	475.769287	1352.822632	-152.662796	607.499146	1219.112793	-153.054214	449.256256	987.414368	79.088058	558.043701	982.444397	-399.373932	517.532837	765.879181	106.672073	648.266632	793.920105	-333.423828	560.035522	863.607300	-57.838730	530.026245	884.809387	-321.856659	380.178680	906.906250	-120.822845	371.021240	912.716736	-226.432770	375.599960	909.811493	-173.627808	400.686890	1088.513672	-169.789276	630.118103	1025.300537	-177.781036	578.537598	605.847717	48.662941	675.759216	453.443634	-29.384766	649.824890	307.238586	34.341969	619.081665	81.256882	-24.592426	573.408447	70.173691	-77.574692	739.436951	61.193092	-55.857662	519.698730	585.388062	-393.395905	548.411011	414.003571	-286.978210	486.021271	266.561584	-338.333069	424.468964	56.207100	-245.215607	380.049927	57.732697	-199.567444	557.601318	37.903168	-210.350906
